<svg xmlns="http://www.w3.org/2000/svg" width="350" height="360"
  viewBox="0 0 350 360" role="img" aria-labelledby="title description">
  <title id="title">Animated c0dse terminal artwork</title>
  <desc id="description">
    A terminal locates c0dse in Wageningen and prints the username in block letters.
  </desc>
  <defs>
    <clipPath id="row-0"><rect x="24" y="62" width="0" height="22"><animate attributeName="width" from="0" to="302" begin="0.18s" dur="0.27s" fill="freeze" /></rect></clipPath>
    <clipPath id="row-1"><rect x="24" y="83" width="0" height="22"><animate attributeName="width" from="0" to="302" begin="0.33s" dur="0.16s" fill="freeze" /></rect></clipPath>
    <clipPath id="row-2"><rect x="24" y="104" width="0" height="22"><animate attributeName="width" from="0" to="302" begin="0.48s" dur="0.25s" fill="freeze" /></rect></clipPath>
    <clipPath id="row-3"><rect x="24" y="125" width="0" height="22"><animate attributeName="width" from="0" to="302" begin="0.63s" dur="0.16s" fill="freeze" /></rect></clipPath>
    <clipPath id="row-4"><rect x="24" y="146" width="0" height="22"><animate attributeName="width" from="0" to="302" begin="0.78s" dur="0.16s" fill="freeze" /></rect></clipPath>
    <clipPath id="row-5"><rect x="24" y="167" width="0" height="22"><animate attributeName="width" from="0" to="302" begin="0.93s" dur="0.16s" fill="freeze" /></rect></clipPath>
    <clipPath id="row-6"><rect x="24" y="188" width="0" height="22"><animate attributeName="width" from="0" to="302" begin="1.08s" dur="0.16s" fill="freeze" /></rect></clipPath>
    <clipPath id="row-7"><rect x="24" y="209" width="0" height="22"><animate attributeName="width" from="0" to="302" begin="1.23s" dur="0.16s" fill="freeze" /></rect></clipPath>
    <clipPath id="row-8"><rect x="24" y="230" width="0" height="22"><animate attributeName="width" from="0" to="302" begin="1.38s" dur="0.38s" fill="freeze" /></rect></clipPath>
    <clipPath id="row-9"><rect x="24" y="251" width="0" height="22"><animate attributeName="width" from="0" to="302" begin="1.53s" dur="0.29s" fill="freeze" /></rect></clipPath>
    <linearGradient id="edge" x1="0" y1="0" x2="1" y2="1">
      <stop offset="0" stop-color="#58a6ff" />
      <stop offset="1" stop-color="#7ee787" />
    </linearGradient>
  </defs>
  <style>
    text {
      font-family: ui-monospace, SFMono-Regular, Menlo, Monaco, Consolas,
        "Liberation Mono", "Courier New", monospace;
    }
    .grid { stroke: #161b22; stroke-width: 1; }
  </style>

  <rect x="0.5" y="0.5" width="349" height="359" rx="14"
    fill="#0d1117" stroke="#30363d" />
  <path d="M14 1 H336 Q349 1 349 14 V58" fill="none"
    stroke="url(#edge)" stroke-width="1.5" opacity=".8" />

  <circle cx="19" cy="20" r="4" fill="#ff7b72" />
  <circle cx="32" cy="20" r="4" fill="#d29922" />
  <circle cx="45" cy="20" r="4" fill="#3fb950" />
  <text x="64" y="25" fill="#8b949e" font-size="11">geo-terminal</text>
  <line x1="1" y1="40" x2="349" y2="40" stroke="#21262d" />

  <g opacity=".32" aria-hidden="true">
    <path class="grid" d="M264 49 V340 M292 49 V340 M320 49 V340" />
    <path class="grid" d="M250 70 H339 M250 98 H339 M250 126 H339" />
    <circle cx="294" cy="98" r="22" fill="none" stroke="#1f6feb" opacity=".45" />
    <path d="M294 68 V128 M264 98 H324" stroke="#238636" opacity=".6" />
  </g>

  <g opacity="0"><rect x="27" y="157" width="7" height="7" rx="1.5" fill="#f0f6fc" /><rect x="37" y="157" width="7" height="7" rx="1.5" fill="#f0f6fc" /><rect x="47" y="157" width="7" height="7" rx="1.5" fill="#f0f6fc" /><rect x="57" y="157" width="7" height="7" rx="1.5" fill="#f0f6fc" /><rect x="67" y="157" width="7" height="7" rx="1.5" fill="#f0f6fc" /><rect x="92" y="157" width="7" height="7" rx="1.5" fill="#58a6ff" /><rect x="102" y="157" width="7" height="7" rx="1.5" fill="#58a6ff" /><rect x="112" y="157" width="7" height="7" rx="1.5" fill="#58a6ff" /><rect x="137" y="157" width="7" height="7" rx="1.5" fill="#f0f6fc" /><rect x="147" y="157" width="7" height="7" rx="1.5" fill="#f0f6fc" /><rect x="157" y="157" width="7" height="7" rx="1.5" fill="#f0f6fc" /><rect x="167" y="157" width="7" height="7" rx="1.5" fill="#f0f6fc" /><rect x="192" y="157" width="7" height="7" rx="1.5" fill="#7ee787" /><rect x="202" y="157" width="7" height="7" rx="1.5" fill="#7ee787" /><rect x="212" y="157" width="7" height="7" rx="1.5" fill="#7ee787" /><rect x="222" y="157" width="7" height="7" rx="1.5" fill="#7ee787" /><rect x="232" y="157" width="7" height="7" rx="1.5" fill="#7ee787" /><rect x="247" y="157" width="7" height="7" rx="1.5" fill="#f0f6fc" /><rect x="257" y="157" width="7" height="7" rx="1.5" fill="#f0f6fc" /><rect x="267" y="157" width="7" height="7" rx="1.5" fill="#f0f6fc" /><rect x="277" y="157" width="7" height="7" rx="1.5" fill="#f0f6fc" /><rect x="287" y="157" width="7" height="7" rx="1.5" fill="#f0f6fc" /><animate attributeName="opacity" from="0" to="1" begin="0.76s" dur=".18s" fill="freeze" /></g>
  <g opacity="0"><rect x="27" y="167" width="7" height="7" rx="1.5" fill="#f0f6fc" /><rect x="82" y="167" width="7" height="7" rx="1.5" fill="#58a6ff" /><rect x="122" y="167" width="7" height="7" rx="1.5" fill="#58a6ff" /><rect x="137" y="167" width="7" height="7" rx="1.5" fill="#f0f6fc" /><rect x="177" y="167" width="7" height="7" rx="1.5" fill="#f0f6fc" /><rect x="192" y="167" width="7" height="7" rx="1.5" fill="#7ee787" /><rect x="247" y="167" width="7" height="7" rx="1.5" fill="#f0f6fc" /><animate attributeName="opacity" from="0" to="1" begin="0.87s" dur=".18s" fill="freeze" /></g>
  <g opacity="0"><rect x="27" y="177" width="7" height="7" rx="1.5" fill="#f0f6fc" /><rect x="82" y="177" width="7" height="7" rx="1.5" fill="#58a6ff" /><rect x="112" y="177" width="7" height="7" rx="1.5" fill="#58a6ff" /><rect x="122" y="177" width="7" height="7" rx="1.5" fill="#58a6ff" /><rect x="137" y="177" width="7" height="7" rx="1.5" fill="#f0f6fc" /><rect x="177" y="177" width="7" height="7" rx="1.5" fill="#f0f6fc" /><rect x="192" y="177" width="7" height="7" rx="1.5" fill="#7ee787" /><rect x="202" y="177" width="7" height="7" rx="1.5" fill="#7ee787" /><rect x="212" y="177" width="7" height="7" rx="1.5" fill="#7ee787" /><rect x="222" y="177" width="7" height="7" rx="1.5" fill="#7ee787" /><rect x="232" y="177" width="7" height="7" rx="1.5" fill="#7ee787" /><rect x="247" y="177" width="7" height="7" rx="1.5" fill="#f0f6fc" /><rect x="257" y="177" width="7" height="7" rx="1.5" fill="#f0f6fc" /><rect x="267" y="177" width="7" height="7" rx="1.5" fill="#f0f6fc" /><rect x="277" y="177" width="7" height="7" rx="1.5" fill="#f0f6fc" /><animate attributeName="opacity" from="0" to="1" begin="0.98s" dur=".18s" fill="freeze" /></g>
  <g opacity="0"><rect x="27" y="187" width="7" height="7" rx="1.5" fill="#f0f6fc" /><rect x="82" y="187" width="7" height="7" rx="1.5" fill="#58a6ff" /><rect x="102" y="187" width="7" height="7" rx="1.5" fill="#58a6ff" /><rect x="122" y="187" width="7" height="7" rx="1.5" fill="#58a6ff" /><rect x="137" y="187" width="7" height="7" rx="1.5" fill="#f0f6fc" /><rect x="177" y="187" width="7" height="7" rx="1.5" fill="#f0f6fc" /><rect x="232" y="187" width="7" height="7" rx="1.5" fill="#7ee787" /><rect x="247" y="187" width="7" height="7" rx="1.5" fill="#f0f6fc" /><animate attributeName="opacity" from="0" to="1" begin="1.09s" dur=".18s" fill="freeze" /></g>
  <g opacity="0"><rect x="27" y="197" width="7" height="7" rx="1.5" fill="#f0f6fc" /><rect x="37" y="197" width="7" height="7" rx="1.5" fill="#f0f6fc" /><rect x="47" y="197" width="7" height="7" rx="1.5" fill="#f0f6fc" /><rect x="57" y="197" width="7" height="7" rx="1.5" fill="#f0f6fc" /><rect x="67" y="197" width="7" height="7" rx="1.5" fill="#f0f6fc" /><rect x="92" y="197" width="7" height="7" rx="1.5" fill="#58a6ff" /><rect x="102" y="197" width="7" height="7" rx="1.5" fill="#58a6ff" /><rect x="112" y="197" width="7" height="7" rx="1.5" fill="#58a6ff" /><rect x="137" y="197" width="7" height="7" rx="1.5" fill="#f0f6fc" /><rect x="147" y="197" width="7" height="7" rx="1.5" fill="#f0f6fc" /><rect x="157" y="197" width="7" height="7" rx="1.5" fill="#f0f6fc" /><rect x="167" y="197" width="7" height="7" rx="1.5" fill="#f0f6fc" /><rect x="192" y="197" width="7" height="7" rx="1.5" fill="#7ee787" /><rect x="202" y="197" width="7" height="7" rx="1.5" fill="#7ee787" /><rect x="212" y="197" width="7" height="7" rx="1.5" fill="#7ee787" /><rect x="222" y="197" width="7" height="7" rx="1.5" fill="#7ee787" /><rect x="232" y="197" width="7" height="7" rx="1.5" fill="#7ee787" /><rect x="247" y="197" width="7" height="7" rx="1.5" fill="#f0f6fc" /><rect x="257" y="197" width="7" height="7" rx="1.5" fill="#f0f6fc" /><rect x="267" y="197" width="7" height="7" rx="1.5" fill="#f0f6fc" /><rect x="277" y="197" width="7" height="7" rx="1.5" fill="#f0f6fc" /><rect x="287" y="197" width="7" height="7" rx="1.5" fill="#f0f6fc" /><animate attributeName="opacity" from="0" to="1" begin="1.20s" dur=".18s" fill="freeze" /></g>

  <text x="27" y="78" fill="#7ee787" font-size="11" xml:space="preserve" clip-path="url(#row-0)">&gt; locate --user</text>
  <text x="27" y="99" fill="#58a6ff" font-size="20" xml:space="preserve" clip-path="url(#row-1)">c0dse</text>
  <text x="27" y="120" fill="#8b949e" font-size="10" xml:space="preserve" clip-path="url(#row-2)">WAGENINGEN, NL</text>
  <text x="27" y="246" fill="#d2a8ff" font-size="10" xml:space="preserve" clip-path="url(#row-8)">[backend] [web] [geo]</text>
  <text x="27" y="267" fill="#7ee787" font-size="11" xml:space="preserve" clip-path="url(#row-9)">&gt; systems online</text>

  <rect x="27" y="277" width="8" height="14" rx="1" fill="#7ee787">
    <animate attributeName="opacity" values="1;0;1;0;1"
      begin="2.1s" dur="1.1s" fill="freeze" />
  </rect>
</svg>
